<svg width="36" height="36" viewBox="0 0 36 36" fill="none" xmlns="http://www.w3.org/2000/svg">
<path d="M32.9997 10.0497C33.4771 9.58549 33.8584 9.0318 34.1218 8.42024C34.3852 7.80867 34.5256 7.15121 34.5349 6.4854C34.5442 5.81959 34.4222 5.15847 34.1759 4.53979C33.9297 3.92112 33.564 3.35701 33.0997 2.87969C32.1375 1.96356 30.8535 1.46265 29.5251 1.4851C28.1967 1.50755 26.9305 2.05157 25.9997 2.99969L20.7797 8.14969C20.3808 8.5454 19.8416 8.76744 19.2797 8.76744C18.7178 8.76744 18.1787 8.5454 17.7797 8.14969L17.1097 7.47969L15.7197 8.91969L27.0797 20.2797L28.4997 18.8597L27.8297 18.1897C27.434 17.7907 27.212 17.2516 27.212 16.6897C27.212 16.1278 27.434 15.5886 27.8297 15.1897L32.9997 10.0497ZM26.4397 13.7997C25.9101 14.3282 25.5364 14.9926 25.3597 15.7197L20.2797 10.6397C21.0068 10.463 21.6712 10.0893 22.1997 9.55969L27.3597 4.38969C27.9251 3.80277 28.6994 3.46296 29.5141 3.44423C30.3289 3.4255 31.118 3.72937 31.7097 4.28969C32.27 4.88143 32.5739 5.67056 32.5552 6.48527C32.5365 7.29999 32.1966 8.07432 31.6097 8.63969L26.4397 13.7997Z" fill="white"/>
<path d="M7.30035 31.5102C6.92507 31.8854 6.41608 32.0963 5.88535 32.0963C5.35463 32.0963 4.84563 31.8854 4.47035 31.5102C4.09507 31.1349 3.88424 30.6259 3.88424 30.0952C3.88424 29.5644 4.09507 29.0554 4.47035 28.6802L18.5804 14.5702L17.1604 13.1602L3.05035 27.2702C2.42718 27.8855 2.02317 28.6883 1.90033 29.5554C1.77749 30.4225 1.94261 31.306 2.37035 32.0702L0.890353 33.5502C0.792016 33.6436 0.713711 33.756 0.660203 33.8807C0.606695 34.0053 0.579102 34.1395 0.579102 34.2752C0.579102 34.4108 0.606695 34.545 0.660203 34.6697C0.713711 34.7943 0.792016 34.9067 0.890353 35.0002C0.983316 35.0939 1.09392 35.1683 1.21578 35.219C1.33764 35.2698 1.46834 35.296 1.60035 35.296C1.73236 35.296 1.86307 35.2698 1.98493 35.219C2.10679 35.1683 2.21739 35.0939 2.31035 35.0002L3.74035 33.5602C4.36672 33.9527 5.09112 34.1607 5.83035 34.1602C6.36582 34.1599 6.89595 34.0538 7.39022 33.8479C7.8845 33.6419 8.33315 33.3402 8.71035 32.9602L22.8204 18.8102L21.4104 17.4002L7.30035 31.5102Z" fill="white"/>
</svg>
