<svg width="36" height="36" viewBox="0 0 36 36" fill="none" xmlns="http://www.w3.org/2000/svg">
<path d="M32.625 5.625H3.375C2.75273 5.625 2.25 6.12773 2.25 6.75V29.25C2.25 29.8723 2.75273 30.375 3.375 30.375H32.625C33.2473 30.375 33.75 29.8723 33.75 29.25V6.75C33.75 6.12773 33.2473 5.625 32.625 5.625ZM31.2188 9.52031V27.8438H4.78125V9.52031L3.81094 8.76445L5.19258 6.98906L6.69727 8.15977H29.3062L30.8109 6.98906L32.1926 8.76445L31.2188 9.52031V9.52031ZM29.3062 8.15625L18 16.9453L6.69375 8.15625L5.18906 6.98555L3.80742 8.76094L4.77773 9.5168L16.7871 18.8543C17.1325 19.1226 17.5574 19.2683 17.9947 19.2683C18.4321 19.2683 18.857 19.1226 19.2023 18.8543L31.2188 9.52031L32.1891 8.76445L30.8074 6.98906L29.3062 8.15625Z" fill="white"/>
</svg>
