<svg width="36" height="36" viewBox="0 0 36 36" fill="none" xmlns="http://www.w3.org/2000/svg">
<path d="M30.3754 18.8553V17.1341L32.5354 15.2441C32.9336 14.8931 33.1949 14.4127 33.2731 13.8878C33.3513 13.3628 33.2414 12.8271 32.9629 12.3753L30.3079 7.87534C30.1106 7.53363 29.827 7.24981 29.4853 7.05235C29.1437 6.8549 28.7562 6.75074 28.3617 6.75034C28.1171 6.74846 27.8739 6.78646 27.6417 6.86284L24.9079 7.78534C24.4359 7.47169 23.9436 7.18982 23.4342 6.94159L22.8604 4.10659C22.7575 3.58864 22.4758 3.12338 22.0644 2.79225C21.6531 2.46112 21.1384 2.28522 20.6104 2.29534H15.3454C14.8174 2.28522 14.3027 2.46112 13.8914 2.79225C13.4801 3.12338 13.1983 3.58864 13.0954 4.10659L12.5217 6.94159C12.0086 7.18976 11.5125 7.47163 11.0367 7.78534L8.35916 6.81784C8.12437 6.75666 7.88123 6.73387 7.63916 6.75034C7.24459 6.75074 6.85707 6.8549 6.51546 7.05235C6.17386 7.24981 5.89019 7.53363 5.69291 7.87534L3.03791 12.3753C2.77532 12.8264 2.67774 13.3548 2.76189 13.87C2.84603 14.3851 3.10667 14.855 3.49916 15.1991L5.62541 17.1453V18.8666L3.49916 20.7566C3.09558 21.1031 2.82782 21.5814 2.74338 22.1065C2.65894 22.6317 2.76329 23.1698 3.03791 23.6253L5.69291 28.1253C5.89019 28.467 6.17386 28.7509 6.51546 28.9483C6.85707 29.1458 7.24459 29.2499 7.63916 29.2503C7.88368 29.2522 8.12686 29.2142 8.35916 29.1378L11.0929 28.2153C11.5649 28.529 12.0572 28.8108 12.5667 29.0591L13.1404 31.8941C13.2433 32.412 13.5251 32.8773 13.9364 33.2084C14.3477 33.5395 14.8624 33.7155 15.3904 33.7053H20.7004C21.2284 33.7155 21.7431 33.5395 22.1544 33.2084C22.5658 32.8773 22.8475 32.412 22.9504 31.8941L23.5242 29.0591C24.0372 28.8109 24.5333 28.529 25.0092 28.2153L27.7317 29.1378C27.9639 29.2142 28.2071 29.2522 28.4517 29.2503C28.8462 29.2499 29.2337 29.1458 29.5753 28.9483C29.917 28.7509 30.2006 28.467 30.3979 28.1253L32.9629 23.6253C33.2255 23.1742 33.3231 22.6458 33.2389 22.1307C33.1548 21.6156 32.8941 21.1457 32.5017 20.8016L30.3754 18.8553ZM28.3617 27.0003L24.5029 25.6953C23.5996 26.4605 22.5672 27.0585 21.4542 27.4616L20.6554 31.5003H15.3454L14.5467 27.5066C13.4424 27.0921 12.4156 26.495 11.5092 25.7403L7.63916 27.0003L4.98416 22.5003L8.04416 19.8003C7.83614 18.6358 7.83614 17.4436 8.04416 16.2791L4.98416 13.5003L7.63916 9.00034L11.4979 10.3053C12.4012 9.54021 13.4336 8.94212 14.5467 8.53909L15.3454 4.50034H20.6554L21.4542 8.49409C22.5584 8.90856 23.5852 9.50562 24.4917 10.2603L28.3617 9.00034L31.0167 13.5003L27.9567 16.2003C28.1647 17.3649 28.1647 18.5571 27.9567 19.7216L31.0167 22.5003L28.3617 27.0003Z" fill="white"/>
<path d="M18 24.75C16.665 24.75 15.3599 24.3541 14.2499 23.6124C13.1399 22.8707 12.2747 21.8165 11.7638 20.5831C11.2529 19.3497 11.1193 17.9925 11.3797 16.6831C11.6402 15.3738 12.283 14.171 13.227 13.227C14.171 12.283 15.3738 11.6402 16.6831 11.3797C17.9925 11.1193 19.3497 11.2529 20.5831 11.7638C21.8165 12.2747 22.8707 13.1399 23.6124 14.2499C24.3541 15.3599 24.75 16.665 24.75 18C24.759 18.8889 24.5906 19.7707 24.2546 20.5938C23.9186 21.4168 23.4217 22.1645 22.7931 22.7931C22.1645 23.4217 21.4168 23.9186 20.5938 24.2546C19.7707 24.5906 18.8889 24.759 18 24.75V24.75ZM18 13.5C17.4053 13.4861 16.8139 13.5931 16.2617 13.8143C15.7094 14.0356 15.2078 14.3665 14.7872 14.7872C14.3665 15.2078 14.0356 15.7094 13.8143 16.2617C13.5931 16.8139 13.4861 17.4053 13.5 18C13.4861 18.5947 13.5931 19.1861 13.8143 19.7383C14.0356 20.2906 14.3665 20.7922 14.7872 21.2128C15.2078 21.6335 15.7094 21.9644 16.2617 22.1857C16.8139 22.4069 17.4053 22.5139 18 22.5C18.5947 22.5139 19.1861 22.4069 19.7383 22.1857C20.2906 21.9644 20.7922 21.6335 21.2128 21.2128C21.6335 20.7922 21.9644 20.2906 22.1857 19.7383C22.4069 19.1861 22.5139 18.5947 22.5 18C22.5139 17.4053 22.4069 16.8139 22.1857 16.2617C21.9644 15.7094 21.6335 15.2078 21.2128 14.7872C20.7922 14.3665 20.2906 14.0356 19.7383 13.8143C19.1861 13.5931 18.5947 13.4861 18 13.5Z" fill="white"/>
</svg>
